<?xml version="1.0" encoding="UTF-8" standalone="no"?>
<!-- Created with Inkscape (http://www.inkscape.org/) -->

<svg
   width="267.90546mm"
   height="147.41879mm"
   viewBox="0 0 267.90546 147.41879"
   version="1.1"
   id="svg1"
   inkscape:export-filename="bielasLogo.svg"
   inkscape:export-xdpi="96"
   inkscape:export-ydpi="96"
   xmlns:inkscape="http://www.inkscape.org/namespaces/inkscape"
   xmlns:sodipodi="http://sodipodi.sourceforge.net/DTD/sodipodi-0.dtd"
   xmlns:xlink="http://www.w3.org/1999/xlink"
   xmlns="http://www.w3.org/2000/svg"
   xmlns:svg="http://www.w3.org/2000/svg">
  <sodipodi:namedview
     id="namedview1"
     pagecolor="#ffffff"
     bordercolor="#000000"
     borderopacity="0.25"
     inkscape:showpageshadow="2"
     inkscape:pageopacity="0.0"
     inkscape:pagecheckerboard="true"
     inkscape:deskcolor="#d1d1d1"
     inkscape:document-units="mm" />
  <defs
     id="defs1">
    <inkscape:path-effect
       effect="fillet_chamfer"
       id="path-effect27"
       is_visible="true"
       lpeversion="1"
       nodesatellites_param="F,0,0,1,0,0,0,1 @ F,0,0,1,0,0,0,1 @ F,0,0,1,0,0,0,1 @ F,0,0,1,0,0,0,1 @ F,0,0,1,0,0,0,1 @ F,0,0,1,0,0,0,1 | F,0,0,1,0,0,0,1 @ F,0,0,1,0,0,0,1 @ F,0,0,1,0,0,0,1 @ F,0,0,1,0,0,0,1"
       radius="0"
       unit="px"
       method="auto"
       mode="F"
       chamfer_steps="1"
       flexible="false"
       use_knot_distance="true"
       apply_no_radius="true"
       apply_with_radius="true"
       only_selected="false"
       hide_knots="false" />
    <linearGradient
       id="linearGradient27"
       inkscape:collect="always">
      <stop
         style="stop-color:#ffffff;stop-opacity:1;"
         offset="0"
         id="stop26" />
      <stop
         style="stop-color:#ffffff;stop-opacity:0;"
         offset="0.10515292"
         id="stop27" />
    </linearGradient>
    <linearGradient
       id="linearGradient22"
       inkscape:collect="always">
      <stop
         style="stop-color:#ffffff;stop-opacity:1;"
         offset="0"
         id="stop22" />
      <stop
         style="stop-color:#ffffff;stop-opacity:0;"
         offset="0.27192983"
         id="stop23" />
    </linearGradient>
    <linearGradient
       inkscape:collect="always"
       xlink:href="#linearGradient17"
       id="linearGradient18"
       x1="-15.532988"
       y1="69.139999"
       x2="131.46797"
       y2="69.139999"
       gradientUnits="userSpaceOnUse" />
    <linearGradient
       id="linearGradient17"
       inkscape:collect="always">
      <stop
         style="stop-color:#ffffff;stop-opacity:1;"
         offset="0"
         id="stop17" />
      <stop
         style="stop-color:#ffffff;stop-opacity:0;"
         offset="0.56798249"
         id="stop18" />
    </linearGradient>
    <linearGradient
       inkscape:collect="always"
       xlink:href="#linearGradient14"
       id="linearGradient15"
       x1="91.64608"
       y1="109.78201"
       x2="111.40206"
       y2="109.78201"
       gradientUnits="userSpaceOnUse"
       gradientTransform="matrix(1.0237581,0,0,1.0237581,-250.21294,-80.765997)" />
    <linearGradient
       id="linearGradient14"
       inkscape:collect="always">
      <stop
         style="stop-color:#6f8a91;stop-opacity:1;"
         offset="0.34232557"
         id="stop14" />
      <stop
         style="stop-color:#6f8a91;stop-opacity:0;"
         offset="0.6223256"
         id="stop15" />
    </linearGradient>
    <linearGradient
       inkscape:collect="always"
       xlink:href="#linearGradient9"
       id="linearGradient10"
       x1="96.966095"
       y1="109.67529"
       x2="106.25379"
       y2="109.67529"
       gradientUnits="userSpaceOnUse"
       gradientTransform="translate(-247.55834,-76.568274)" />
    <linearGradient
       id="linearGradient9"
       inkscape:collect="always">
      <stop
         style="stop-color:#b7c4c8;stop-opacity:1;"
         offset="0.38511628"
         id="stop9" />
      <stop
         style="stop-color:#b7c4c8;stop-opacity:0;"
         offset="0.56372094"
         id="stop10" />
    </linearGradient>
    <linearGradient
       inkscape:collect="always"
       xlink:href="#linearGradient22"
       id="linearGradient23"
       x1="237.23518"
       y1="141.62276"
       x2="237.46266"
       y2="182.72646"
       gradientUnits="userSpaceOnUse" />
    <linearGradient
       inkscape:collect="always"
       xlink:href="#linearGradient27"
       id="linearGradient26"
       gradientUnits="userSpaceOnUse"
       x1="247.97604"
       y1="143.48997"
       x2="237.46266"
       y2="182.72646" />
  </defs>
  <g
     inkscape:label="Capa 1"
     inkscape:groupmode="layer"
     id="layer1"
     transform="translate(-17.66955,-24.427938)">
    <g
       id="g23"
       inkscape:label="biela derecha"
       transform="translate(3.562248,-63.452788)">
      <path
         id="rect1"
         style="opacity:1;fill:#6f8a91;fill-rule:evenodd;stroke:#000000;stroke-width:3;stroke-dasharray:none;stroke-opacity:1"
         d="m 212.50246,140.48548 v 43.96579 h 46.32482 a 21.68535,21.68535 0 0 0 21.68549,-21.68498 v -0.13746 a 22.14333,22.14333 0 0 0 -22.14335,-22.14335 z m 46.88602,12.65143 a 9.3313417,9.3313417 0 0 1 9.33122,9.33173 9.3313417,9.3313417 0 0 1 -9.33122,9.33121 9.3313417,9.3313417 0 0 1 -9.33121,-9.33121 9.3313417,9.3313417 0 0 1 9.33121,-9.33173 z" />
      <path
         style="opacity:1;fill:none;fill-opacity:1;fill-rule:evenodd;stroke:#000000;stroke-width:3;stroke-linecap:round;stroke-linejoin:bevel;stroke-dasharray:none;stroke-opacity:1;paint-order:fill markers stroke"
         d="m 218.85717,166.36121 h 25.41789"
         id="path9" />
      <path
         style="opacity:1;fill:none;fill-opacity:1;fill-rule:evenodd;stroke:#000000;stroke-width:3;stroke-linecap:round;stroke-linejoin:bevel;stroke-dasharray:none;stroke-opacity:1;paint-order:fill markers stroke"
         d="m 218.85717,156.97262 h 25.41789"
         id="path8" />
      <path
         id="path10"
         style="opacity:1;fill:url(#linearGradient23);fill-opacity:1;fill-rule:evenodd;stroke:none;stroke-width:2.82304;stroke-dasharray:none;stroke-opacity:1"
         d="m 214.22169,141.95886 v 41.00398 h 43.98397 a 20.589558,20.224486 0 0 0 20.58969,-20.22415 v -0.1282 a 21.024396,20.651614 0 0 0 -21.02442,-20.65163 z m 44.51681,11.79915 a 8.8598154,8.7027228 0 0 1 8.85969,8.70309 8.8598154,8.7027228 0 0 1 -8.85969,8.7026 8.8598154,8.7027228 0 0 1 -8.8597,-8.7026 8.8598154,8.7027228 0 0 1 8.8597,-8.70309 z" />
    </g>
    <g
       id="g26"
       inkscape:label="biela izquierda"
       transform="matrix(-1,0,0,1,299.68232,-63.452788)">
      <path
         id="path23"
         style="opacity:1;fill:#6f8a91;fill-rule:evenodd;stroke:#000000;stroke-width:3;stroke-dasharray:none;stroke-opacity:1"
         d="m 212.50246,140.48548 v 43.96579 h 46.32482 a 21.68535,21.68535 0 0 0 21.68549,-21.68498 v -0.13746 a 22.14333,22.14333 0 0 0 -22.14335,-22.14335 z m 46.88602,12.65143 a 9.3313417,9.3313417 0 0 1 9.33122,9.33173 9.3313417,9.3313417 0 0 1 -9.33122,9.33121 9.3313417,9.3313417 0 0 1 -9.33121,-9.33121 9.3313417,9.3313417 0 0 1 9.33121,-9.33173 z"
         inkscape:label="path23" />
      <path
         style="opacity:1;fill:none;fill-opacity:1;fill-rule:evenodd;stroke:#000000;stroke-width:3;stroke-linecap:round;stroke-linejoin:bevel;stroke-dasharray:none;stroke-opacity:1;paint-order:fill markers stroke"
         d="m 218.85717,166.36121 h 25.41789"
         id="path24" />
      <path
         style="opacity:1;fill:none;fill-opacity:1;fill-rule:evenodd;stroke:#000000;stroke-width:3;stroke-linecap:round;stroke-linejoin:bevel;stroke-dasharray:none;stroke-opacity:1;paint-order:fill markers stroke"
         d="m 218.85717,156.97262 h 25.41789"
         id="path25" />
      <path
         id="path26"
         style="opacity:1;fill:url(#linearGradient26);fill-opacity:1;fill-rule:evenodd;stroke:none;stroke-width:2.82304;stroke-dasharray:none;stroke-opacity:1"
         d="m 214.22169,141.95886 v 41.00398 h 43.98397 c 11.37122,7e-5 20.9959,-9.06194 20.58969,-20.22415 l -0.0286,-0.78655 c -0.4148,-11.39804 -8.8691,-19.93605 -20.48057,-19.93603 z m 44.51681,11.79915 c 4.89324,7e-5 8.8599,3.89661 8.85969,8.70309 -7e-5,4.80629 -3.96665,8.70253 -8.85969,8.7026 -4.89305,-6e-5 -8.85963,-3.89631 -8.8597,-8.7026 -2.1e-4,-4.80648 3.96646,-8.70303 8.8597,-8.70309 z"
         inkscape:path-effect="#path-effect27"
         inkscape:original-d="m 214.22169,141.95886 v 41.00398 h 43.98397 c 11.37122,7e-5 20.9959,-9.06194 20.58969,-20.22415 l -0.0286,-0.78655 c -0.4148,-11.39804 -8.8691,-19.93605 -20.48057,-19.93603 z m 44.51681,11.79915 c 4.89324,7e-5 8.8599,3.89661 8.85969,8.70309 -7e-5,4.80629 -3.96665,8.70253 -8.85969,8.7026 -4.89305,-6e-5 -8.85963,-3.89631 -8.8597,-8.7026 -2.1e-4,-4.80648 3.96646,-8.70303 8.8597,-8.70309 z"
         sodipodi:nodetypes="cccssccccccc" />
    </g>
    <g
       id="g117"
       transform="translate(49.622596,-11.368268)"
       inkscape:label="radios">
      <path
         id="path1"
         style="fill:#6f8a91;fill-opacity:0;fill-rule:evenodd;stroke:#6f8a91;stroke-width:10.3531"
         d="m 109.7981,118.90112 c -3.16939,3.32325 -9.08452,3.34 -12.841351,5.98107 -3.756829,2.64108 -5.828472,7.91508 -10.028362,9.77248 -4.199892,1.85741 -9.530594,-0.49132 -14.012147,0.51104 -4.481554,1.00236 -8.700483,5.25173 -13.291475,5.36052 -4.590992,0.10879 -8.651849,-4.28785 -13.175851,-5.0768 -4.524001,-0.78896 -10.01585,1.93407 -14.299006,0.27768 -4.283157,-1.65638 -6.491801,-7.44227 -10.369513,-9.90243 -3.877711,-2.46016 -9.771161,-1.59763 -13.09441,-4.76702 C 5.3627362,117.88826 5.4747983,111.67804 2.833723,107.92121 0.19264786,104.16438 -6.4763446,102.66169 -8.3337511,98.461801 -10.191158,94.26191 -6.8699063,88.270078 -7.8722654,83.788525 -8.8746244,79.306972 -13.436631,75.508923 -13.545422,70.917931 -13.654213,66.326938 -9.5183238,61.9333 -8.7293666,57.409298 -7.9404094,52.885297 -11.304598,47.274742 -9.6482115,42.991586 -7.9918248,38.708429 -1.6076411,37.075764 0.85252093,33.198053 3.3126827,29.320341 3.1440273,22.943262 6.3134218,19.620013 9.4828166,16.296764 15.257525,16.919254 19.014354,14.278178 c 3.75683,-2.641075 5.77171,-8.2557139 9.971601,-10.1131205 4.199891,-1.8574068 9.772082,0.4188087 14.253636,-0.5835504 4.481553,-1.002359 8.504549,-5.7812316 13.095541,-5.8900229 4.590992,-0.1087912 8.566783,4.4711466 13.090785,5.2601039 4.524002,0.7889572 10.256454,-2.266853 14.539611,-0.6104665 4.283156,1.6563867 6.455939,7.3551844 10.333651,9.8153464 3.877712,2.460162 10.112631,1.565857 13.435871,4.735251 3.32325,3.169395 3.40843,9.449236 6.04951,13.206066 2.64107,3.756829 8.62676,5.520526 10.48417,9.720413 1.8357,4.150801 -1.12464,7.141283 -0.25389,11.581416 0.0103,0.05251 0.82495,3.647177 0.84504,3.696915 2.65808,6.580002 0.33586,2.669464 2.04384,4.745482 1.70798,2.076012 3.30424,4.165714 3.35864,6.46121 0.10879,4.590993 -3.93687,9.52918 -4.72583,14.053182 -0.78896,4.524002 1.70304,10.648854 0.0466,14.93201 -1.65638,4.283156 -6.94281,6.006587 -9.40297,9.884297 -2.46016,3.87771 -3.21273,10.40516 -6.38212,13.72841 z"
         sodipodi:nodetypes="ssssssssssssssssssssssssssssssssssss"
         transform="matrix(0.95173041,0,0,0.94615281,46.067645,44.336935)" />
      <path
         id="path2"
         style="fill:none;fill-rule:evenodd;stroke:#000000;stroke-width:2.465"
         transform="translate(43.442083,40.365597)"
         d="m 110.42969,119.17339 c -3.16939,3.32325 -10.3477,1.88787 -14.104526,4.52894 -3.756829,2.64108 -4.835981,9.88151 -9.035871,11.73891 -4.199892,1.85741 -10.282481,-2.21573 -14.764034,-1.21337 -4.481554,1.00236 -8.249351,7.27867 -12.840343,7.38746 -4.590992,0.10879 -8.651849,-5.98201 -13.175851,-6.77096 -4.524001,-0.78896 -10.406831,3.56772 -14.689987,1.91133 -4.283157,-1.65638 -5.704053,-8.83757 -9.581765,-11.29773 C 18.359602,122.99781 11.257347,124.77159 7.934098,121.6022 4.6108492,118.4328 6.0462324,111.2545 3.4051571,107.49767 0.76408194,103.74084 -6.4763446,102.66169 -8.3337511,98.461801 -10.191158,94.26191 -6.1180193,88.17932 -7.1203784,83.697767 -8.1227374,79.216214 -14.399046,75.448417 -14.507837,70.857425 -14.616628,66.266432 -8.525833,62.205575 -7.7368758,57.681573 -6.9479186,53.157572 -11.304598,47.274742 -9.6482115,42.991586 -7.9918248,38.708429 -0.81064088,37.287533 1.6495211,33.409822 4.1096829,29.53211 2.3358975,22.429855 5.505292,19.106606 8.6746868,15.783357 15.852989,17.218741 19.609818,14.577665 23.366648,11.93659 24.445799,4.6961637 28.64569,2.8387571 c 4.199891,-1.85740674 10.28248,2.2157318 14.764034,1.2133727 4.481553,-1.002359 8.24935,-7.2786675 12.840342,-7.3874588 4.590992,-0.1087912 8.651849,5.9820042 13.175851,6.7709615 4.524002,0.7889572 10.406831,-3.5677223 14.689988,-1.9113358 4.283156,1.6563867 5.704052,8.8375703 9.581764,11.2977323 3.877712,2.460162 10.979971,0.686377 14.303211,3.855771 3.32325,3.169395 1.88787,10.347697 4.52895,14.104527 2.64107,3.756829 9.8815,4.83598 11.7389,9.035871 1.85741,4.199891 -2.21573,10.28248 -1.21337,14.764034 1.00236,4.481553 7.27867,8.24935 7.38746,12.840342 0.10879,4.590993 -5.982,8.651849 -6.77096,13.175851 -0.78896,4.524002 3.56772,10.406832 1.91133,14.689988 -1.65638,4.283156 -8.83757,5.704057 -11.29773,9.581767 -2.46016,3.87771 -0.68638,10.97996 -3.85577,14.30321 z" />
      <path
         id="path17"
         style="fill:none;fill-rule:evenodd;stroke:url(#linearGradient18);stroke-width:2.04722"
         transform="matrix(0.37465229,0.90223952,-0.90223952,0.37465229,142.3089,31.637477)"
         d="m 110.42969,119.17339 c -3.16939,3.32325 -10.3477,1.88787 -14.104526,4.52894 -3.756829,2.64108 -4.835981,9.88151 -9.035871,11.73891 -4.199892,1.85741 -10.282481,-2.21573 -14.764034,-1.21337 -4.481554,1.00236 -8.249351,7.27867 -12.840343,7.38746 -4.590992,0.10879 -8.651849,-5.98201 -13.175851,-6.77096 -4.524001,-0.78896 -10.406831,3.56772 -14.689987,1.91133 -4.283157,-1.65638 -5.704053,-8.83757 -9.581765,-11.29773 C 18.359602,122.99781 11.257347,124.77159 7.934098,121.6022 4.6108492,118.4328 6.0462324,111.2545 3.4051571,107.49767 0.76408194,103.74084 -6.4763446,102.66169 -8.3337511,98.461801 -10.191158,94.26191 -6.1180193,88.17932 -7.1203784,83.697767 -8.1227374,79.216214 -14.399046,75.448417 -14.507837,70.857425 -14.616628,66.266432 -8.525833,62.205575 -7.7368758,57.681573 -6.9479186,53.157572 -11.304598,47.274742 -9.6482115,42.991586 -7.9918248,38.708429 -0.81064088,37.287533 1.6495211,33.409822 4.1096829,29.53211 2.3358975,22.429855 5.505292,19.106606 8.6746868,15.783357 15.852989,17.218741 19.609818,14.577665 23.366648,11.93659 24.445799,4.6961637 28.64569,2.8387571 c 4.199891,-1.85740674 10.28248,2.2157318 14.764034,1.2133727 4.481553,-1.002359 8.24935,-7.2786675 12.840342,-7.3874588 4.590992,-0.1087912 8.651849,5.9820042 13.175851,6.7709615 4.524002,0.7889572 10.406831,-3.5677223 14.689988,-1.9113358 4.283156,1.6563867 5.704052,8.8375703 9.581764,11.2977323 3.877712,2.460162 10.979971,0.686377 14.303211,3.855771 3.32325,3.169395 1.88787,10.347697 4.52895,14.104527 2.64107,3.756829 9.8815,4.83598 11.7389,9.035871 1.85741,4.199891 -2.21573,10.28248 -1.21337,14.764034 1.00236,4.481553 7.27867,8.24935 7.38746,12.840342 0.10879,4.590993 -5.982,8.651849 -6.77096,13.175851 -0.78896,4.524002 3.56772,10.406832 1.91133,14.689988 -1.65638,4.283156 -8.83757,5.704057 -11.29773,9.581767 -2.46016,3.87771 -0.68638,10.97996 -3.85577,14.30321 z" />
      <path
         id="path3"
         style="fill:none;fill-rule:evenodd;stroke:#000000;stroke-width:4.18534"
         d="M 163.41823,109.8415 A 61.772514,60.818497 0 0 1 101.64571,170.66 61.772514,60.818497 0 0 1 39.873199,109.8415 61.772514,60.818497 0 0 1 101.64571,49.023003 61.772514,60.818497 0 0 1 163.41823,109.8415 Z" />
      <path
         id="ellipse5"
         style="fill-rule:evenodd;stroke-width:0.0691849"
         d="M 115.54187,109.8415 A 13.896154,13.439391 0 0 1 101.64571,123.28089 13.896154,13.439391 0 0 1 87.749559,109.8415 13.896154,13.439391 0 0 1 101.64571,96.402108 13.896154,13.439391 0 0 1 115.54187,109.8415 Z" />
      <path
         id="ellipse6"
         style="fill:#ffffff;fill-rule:evenodd;stroke-width:0.0491797"
         d="m 111.40206,109.62009 a 9.8779898,9.5533018 0 0 1 -9.87799,9.5533 9.8779898,9.5533018 0 0 1 -9.877989,-9.5533 9.8779898,9.5533018 0 0 1 9.877989,-9.55331 9.8779898,9.5533018 0 0 1 9.87799,9.55331 z" />
      <path
         id="ellipse14"
         style="fill:url(#linearGradient15);fill-rule:evenodd;stroke-width:0.0503481"
         transform="rotate(-120.58145)"
         d="m -136.16417,31.624226 a 10.112672,9.7802696 0 0 1 -10.11267,9.780269 10.112672,9.7802696 0 0 1 -10.11267,-9.780269 10.112672,9.7802696 0 0 1 10.11267,-9.78027 10.112672,9.7802696 0 0 1 10.11267,9.78027 z" />
      <path
         id="ellipse7"
         style="fill-rule:evenodd;stroke-width:0.0349487"
         d="m 108.66533,109.8415 a 7.019619,6.7888856 0 0 1 -7.01962,6.78888 7.019619,6.7888856 0 0 1 -7.019615,-6.78888 7.019619,6.7888856 0 0 1 7.019615,-6.78889 7.019619,6.7888856 0 0 1 7.01962,6.78889 z" />
      <path
         id="ellipse8"
         style="fill:#ffffff;fill-rule:evenodd;stroke-width:0.0231204"
         d="m 106.16792,109.62009 a 4.6438479,4.4912057 0 0 1 -4.64385,4.4912 4.6438479,4.4912057 0 0 1 -4.643847,-4.4912 4.6438479,4.4912057 0 0 1 4.643847,-4.49121 4.6438479,4.4912057 0 0 1 4.64385,4.49121 z" />
      <path
         id="ellipse9"
         style="fill:url(#linearGradient10);fill-rule:evenodd;stroke-width:0.0231204"
         transform="rotate(-120)"
         d="m -141.30453,33.107021 a 4.6438479,4.4912057 0 0 1 -4.64385,4.491206 4.6438479,4.4912057 0 0 1 -4.64385,-4.491206 4.6438479,4.4912057 0 0 1 4.64385,-4.491205 4.6438479,4.4912057 0 0 1 4.64385,4.491205 z" />
      <path
         style="fill:#000000;fill-opacity:1;stroke:#000000;stroke-width:1;stroke-linecap:round;stroke-linejoin:bevel;stroke-dasharray:none;stroke-opacity:1;paint-order:fill markers stroke"
         d="m 100.41984,51.075206 -1.216075,47.47375"
         id="path84"
         inkscape:label="radio" />
      <path
         style="fill:#000000;fill-opacity:1;stroke:#000000;stroke-width:1;stroke-linecap:round;stroke-linejoin:bevel;stroke-dasharray:none;stroke-opacity:1;paint-order:fill markers stroke"
         d="M 88.867116,52.197738 101.44883,98.081234"
         id="path85"
         inkscape:label="radio" />
      <path
         style="fill:#000000;fill-opacity:1;stroke:#000000;stroke-width:1;stroke-linecap:round;stroke-linejoin:bevel;stroke-dasharray:none;stroke-opacity:1;paint-order:fill markers stroke"
         d="M 77.922429,55.331473 94.807182,100.3263"
         id="path86"
         inkscape:label="radio" />
      <path
         style="fill:#000000;fill-opacity:1;stroke:#000000;stroke-width:1;stroke-linecap:round;stroke-linejoin:bevel;stroke-dasharray:none;stroke-opacity:1;paint-order:fill markers stroke"
         d="M 67.679326,61.271538 96.958702,98.736043"
         id="path87"
         inkscape:label="radio" />
      <path
         style="fill:#000000;fill-opacity:1;stroke:#000000;stroke-width:1;stroke-linecap:round;stroke-linejoin:bevel;stroke-dasharray:none;stroke-opacity:1;paint-order:fill markers stroke"
         d="m 57.716853,68.708314 33.86305,34.845266"
         id="path88"
         inkscape:label="radio" />
      <path
         style="fill:#000000;fill-opacity:1;stroke:#000000;stroke-width:1;stroke-linecap:round;stroke-linejoin:bevel;stroke-dasharray:none;stroke-opacity:1;paint-order:fill markers stroke"
         d="M 92.842751,101.72946 50.28008,78.483697"
         id="path89"
         inkscape:label="radio" />
      <path
         style="fill:#000000;fill-opacity:1;stroke:#000000;stroke-width:1;stroke-linecap:round;stroke-linejoin:bevel;stroke-dasharray:none;stroke-opacity:1;paint-order:fill markers stroke"
         d="M 45.041597,88.305851 89.896105,107.62276"
         id="path90"
         inkscape:label="radio" />
      <path
         style="fill:#000000;fill-opacity:1;stroke:#000000;stroke-width:1;stroke-linecap:round;stroke-linejoin:bevel;stroke-dasharray:none;stroke-opacity:1;paint-order:fill markers stroke"
         d="M 90.363827,105.56478 41.954635,99.765031"
         id="path91"
         inkscape:label="radio" />
      <path
         style="fill:#000000;fill-opacity:1;stroke:#000000;stroke-width:1;stroke-linecap:round;stroke-linejoin:bevel;stroke-dasharray:none;stroke-opacity:1;paint-order:fill markers stroke"
         d="m 41.065963,111.27099 48.830142,0.88867"
         id="path92"
         inkscape:label="radio" />
      <path
         style="fill:#000000;fill-opacity:1;stroke:#000000;stroke-width:1;stroke-linecap:round;stroke-linejoin:bevel;stroke-dasharray:none;stroke-opacity:1;paint-order:fill markers stroke"
         d="M 89.521928,109.96136 42.749761,123.0108"
         id="path93"
         inkscape:label="radio" />
      <path
         style="fill:#000000;fill-opacity:1;stroke:#000000;stroke-width:1;stroke-linecap:round;stroke-linejoin:bevel;stroke-dasharray:none;stroke-opacity:1;paint-order:fill markers stroke"
         d="M 46.257672,133.90871 91.626676,116.36915"
         id="path94"
         inkscape:label="radio" />
      <path
         style="fill:#000000;fill-opacity:1;stroke:#000000;stroke-width:1;stroke-linecap:round;stroke-linejoin:bevel;stroke-dasharray:none;stroke-opacity:1;paint-order:fill markers stroke"
         d="M 90.691231,114.40472 51.449385,142.98251"
         id="path95"
         inkscape:label="radio" />
      <path
         style="fill:#000000;fill-opacity:1;stroke:#000000;stroke-width:1;stroke-linecap:round;stroke-linejoin:bevel;stroke-dasharray:none;stroke-opacity:1;paint-order:fill markers stroke"
         d="M 60.055463,152.85144 95.274904,119.78352"
         id="path96"
         inkscape:label="radio" />
      <path
         style="fill:#000000;fill-opacity:1;stroke:#000000;stroke-width:1;stroke-linecap:round;stroke-linejoin:bevel;stroke-dasharray:none;stroke-opacity:1;paint-order:fill markers stroke"
         d="M 93.357244,118.42713 69.690529,159.82049"
         id="path97"
         inkscape:label="radio" />
      <path
         style="fill:#000000;fill-opacity:1;stroke:#000000;stroke-width:1;stroke-linecap:round;stroke-linejoin:bevel;stroke-dasharray:none;stroke-opacity:1;paint-order:fill markers stroke"
         d="M 80.354582,165.15252 100.18598,121.327"
         id="path98"
         inkscape:label="radio" />
      <path
         style="fill:#000000;fill-opacity:1;stroke:#000000;stroke-width:1;stroke-linecap:round;stroke-linejoin:bevel;stroke-dasharray:none;stroke-opacity:1;paint-order:fill markers stroke"
         d="m 97.660284,120.88583 -5.706205,46.86571"
         id="path99"
         inkscape:label="radio" />
      <path
         style="fill:#000000;fill-opacity:1;stroke:#000000;stroke-width:1;stroke-linecap:round;stroke-linejoin:bevel;stroke-dasharray:none;stroke-opacity:1;paint-order:fill markers stroke"
         d="m 102.85199,168.56689 1.40317,-47.42698"
         id="path100"
         inkscape:label="radio" />
      <path
         style="fill:#000000;fill-opacity:1;stroke:#000000;stroke-width:1.02041;stroke-linecap:round;stroke-linejoin:bevel;stroke-dasharray:none;stroke-opacity:1;paint-order:fill markers stroke"
         d="m 101.83322,121.19689 12.74307,46.19963"
         id="path101"
         inkscape:label="radio" />
      <path
         style="fill:#000000;fill-opacity:1;stroke:#000000;stroke-width:1;stroke-linecap:round;stroke-linejoin:bevel;stroke-dasharray:none;stroke-opacity:1;paint-order:fill markers stroke"
         d="M 125.58327,163.56227 108.13725,119.40934"
         id="path102"
         inkscape:label="radio" />
      <path
         style="fill:#000000;fill-opacity:1;stroke:#000000;stroke-width:1.00614;stroke-linecap:round;stroke-linejoin:bevel;stroke-dasharray:none;stroke-opacity:1;paint-order:fill markers stroke"
         d="m 106.50329,120.4414 28.84736,37.92981"
         id="path103"
         inkscape:label="radio" />
      <path
         style="fill:#000000;fill-opacity:1;stroke:#000000;stroke-width:1.00682;stroke-linecap:round;stroke-linejoin:bevel;stroke-dasharray:none;stroke-opacity:1;paint-order:fill markers stroke"
         d="M 144.84912,150.4249 111.46148,115.57743"
         id="path104"
         inkscape:label="radio" />
      <path
         style="fill:#000000;fill-opacity:1;stroke:#000000;stroke-width:1;stroke-linecap:round;stroke-linejoin:bevel;stroke-dasharray:none;stroke-opacity:1;paint-order:fill markers stroke"
         d="m 109.86782,117.91263 43.03039,22.77805"
         id="path105"
         inkscape:label="radio" />
      <path
         style="fill:#000000;fill-opacity:1;stroke:#000000;stroke-width:1;stroke-linecap:round;stroke-linejoin:bevel;stroke-dasharray:none;stroke-opacity:1;paint-order:fill markers stroke"
         d="M 157.66897,131.19593 113.28219,111.4113"
         id="path106"
         inkscape:label="radio" />
      <path
         style="fill:#000000;fill-opacity:1;stroke:#000000;stroke-width:1;stroke-linecap:round;stroke-linejoin:bevel;stroke-dasharray:none;stroke-opacity:1;paint-order:fill markers stroke"
         d="m 112.44029,114.12409 48.64305,5.23848"
         id="path107"
         inkscape:label="radio" />
      <path
         style="fill:#000000;fill-opacity:1;stroke:#000000;stroke-width:1;stroke-linecap:round;stroke-linejoin:bevel;stroke-dasharray:none;stroke-opacity:1;paint-order:fill markers stroke"
         d="m 161.59784,107.95016 -48.54951,-1.12253"
         id="path108"
         inkscape:label="radio" />
      <path
         style="fill:#000000;fill-opacity:1;stroke:#000000;stroke-width:1;stroke-linecap:round;stroke-linejoin:bevel;stroke-dasharray:none;stroke-opacity:1;paint-order:fill markers stroke"
         d="M 113.60959,109.25978 160.00758,96.350663"
         id="path109"
         inkscape:label="radio" />
      <path
         style="fill:#000000;fill-opacity:1;stroke:#000000;stroke-width:1;stroke-linecap:round;stroke-linejoin:bevel;stroke-dasharray:none;stroke-opacity:1;paint-order:fill markers stroke"
         d="M 156.54644,85.546294 111.45807,103.13263"
         id="path110"
         inkscape:label="radio" />
      <path
         style="fill:#000000;fill-opacity:1;stroke:#000000;stroke-width:1;stroke-linecap:round;stroke-linejoin:bevel;stroke-dasharray:none;stroke-opacity:1;paint-order:fill markers stroke"
         d="M 112.48706,104.90997 151.44828,76.706353"
         id="path111"
         inkscape:label="radio" />
      <path
         style="fill:#000000;fill-opacity:1;stroke:#000000;stroke-width:1;stroke-linecap:round;stroke-linejoin:bevel;stroke-dasharray:none;stroke-opacity:1;paint-order:fill markers stroke"
         d="M 143.59055,66.884197 107.80984,100.18598"
         id="path112"
         inkscape:label="radio" />
      <path
         style="fill:#000000;fill-opacity:1;stroke:#000000;stroke-width:1;stroke-linecap:round;stroke-linejoin:bevel;stroke-dasharray:none;stroke-opacity:1;paint-order:fill markers stroke"
         d="m 109.82105,101.58915 23.8538,-41.393371"
         id="path113"
         inkscape:label="radio" />
      <path
         style="fill:#000000;fill-opacity:1;stroke:#000000;stroke-width:1;stroke-linecap:round;stroke-linejoin:bevel;stroke-dasharray:none;stroke-opacity:1;paint-order:fill markers stroke"
         d="M 123.47852,54.863751 104.0213,98.40864"
         id="path114"
         inkscape:label="radio" />
      <path
         style="fill:#000000;fill-opacity:1;stroke:#000000;stroke-width:1;stroke-linecap:round;stroke-linejoin:bevel;stroke-dasharray:none;stroke-opacity:1;paint-order:fill markers stroke"
         d="m 105.84541,99.344082 6.36102,-47.380204"
         id="path115"
         inkscape:label="radio" />
    </g>
    <g
       id="g116"
       inkscape:label="rueda"
       transform="translate(49.622596,-11.368268)">
      <path
         id="ellipse48"
         style="fill-rule:evenodd;stroke-width:5.17393"
         d="m 78.213859,49.542561 a 3.0084605,3.0148525 0 0 1 -3.00846,3.014852 3.0084605,3.0148525 0 0 1 -3.008461,-3.014852 3.0084605,3.0148525 0 0 1 3.008461,-3.014853 3.0084605,3.0148525 0 0 1 3.00846,3.014853 z" />
      <path
         id="ellipse18"
         style="fill:#b7c4c8;fill-rule:evenodd;stroke-width:5.17393"
         d="m 77.933227,49.191769 a 3.0084605,3.0148525 0 0 1 -3.00846,3.014852 3.0084605,3.0148525 0 0 1 -3.008461,-3.014852 3.0084605,3.0148525 0 0 1 3.008461,-3.014853 3.0084605,3.0148525 0 0 1 3.00846,3.014853 z" />
      <path
         id="ellipse19"
         style="fill-rule:evenodd;stroke-width:3.73346"
         d="m 77.095644,49.191769 a 2.1708777,2.1754901 0 0 1 -2.170877,2.17549 2.1708777,2.1754901 0 0 1 -2.170878,-2.17549 2.1708777,2.1754901 0 0 1 2.170878,-2.17549 2.1708777,2.1754901 0 0 1 2.170877,2.17549 z" />
      <path
         id="ellipse51"
         style="fill:#1a1a1a;fill-rule:evenodd;stroke-width:5.17393"
         d="m 56.544403,64.48465 a 3.0084605,3.0148525 0 0 1 -3.008461,3.014852 3.0084605,3.0148525 0 0 1 -3.00846,-3.014852 3.0084605,3.0148525 0 0 1 3.00846,-3.014853 3.0084605,3.0148525 0 0 1 3.008461,3.014853 z" />
      <path
         id="ellipse20"
         style="fill:#b7c4c8;fill-rule:evenodd;stroke-width:5.17393"
         d="m 56.519596,64.327553 a 3.0084605,3.0148525 0 0 1 -3.008461,3.014852 3.0084605,3.0148525 0 0 1 -3.00846,-3.014852 3.0084605,3.0148525 0 0 1 3.00846,-3.014853 3.0084605,3.0148525 0 0 1 3.008461,3.014853 z" />
      <path
         id="ellipse21"
         style="fill-rule:evenodd;stroke-width:3.73346"
         d="m 55.715086,64.327553 a 2.1708777,2.1754901 0 0 1 -2.170877,2.17549 2.1708777,2.1754901 0 0 1 -2.170878,-2.17549 2.1708777,2.1754901 0 0 1 2.170878,-2.17549 2.1708777,2.1754901 0 0 1 2.170877,2.17549 z" />
      <path
         id="ellipse52"
         style="fill:#1a1a1a;fill-rule:evenodd;stroke-width:5.17393"
         d="m 42.984039,86.586403 a 3.0084605,3.0148525 0 0 1 -3.008461,3.014852 3.0084605,3.0148525 0 0 1 -3.00846,-3.014852 3.0084605,3.0148525 0 0 1 3.00846,-3.014853 3.0084605,3.0148525 0 0 1 3.008461,3.014853 z" />
      <path
         id="ellipse22"
         style="fill:#b7c4c8;fill-rule:evenodd;stroke-width:5.17393"
         d="m 42.884819,86.454109 a 3.0084605,3.0148525 0 0 1 -3.008461,3.014853 3.0084605,3.0148525 0 0 1 -3.00846,-3.014853 3.0084605,3.0148525 0 0 1 3.00846,-3.014852 3.0084605,3.0148525 0 0 1 3.008461,3.014852 z" />
      <path
         id="ellipse23"
         style="fill-rule:evenodd;stroke-width:3.73346"
         d="m 42.047236,86.454109 a 2.1708777,2.1754901 0 0 1 -2.170878,2.17549 2.1708777,2.1754901 0 0 1 -2.170878,-2.17549 2.1708777,2.1754901 0 0 1 2.170878,-2.17549 2.1708777,2.1754901 0 0 1 2.170878,2.17549 z" />
      <path
         id="ellipse53"
         style="fill:#1a1a1a;fill-rule:evenodd;stroke-width:5.17393"
         d="m 38.207603,111.92155 a 3.0084605,3.0148525 0 0 1 -3.008461,3.01485 3.0084605,3.0148525 0 0 1 -3.00846,-3.01485 3.0084605,3.0148525 0 0 1 3.00846,-3.01486 3.0084605,3.0148525 0 0 1 3.008461,3.01486 z" />
      <path
         id="ellipse24"
         style="fill:#b7c4c8;fill-rule:evenodd;stroke-width:5.17393"
         d="m 38.114059,111.71108 a 3.0084605,3.0148525 0 0 1 -3.008461,3.01485 3.0084605,3.0148525 0 0 1 -3.00846,-3.01485 3.0084605,3.0148525 0 0 1 3.00846,-3.01485 3.0084605,3.0148525 0 0 1 3.008461,3.01485 z" />
      <path
         id="ellipse25"
         style="fill-rule:evenodd;stroke-width:3.73346"
         d="m 37.276476,111.71108 a 2.1708777,2.1754901 0 0 1 -2.170878,2.17549 2.1708777,2.1754901 0 0 1 -2.170877,-2.17549 2.1708777,2.1754901 0 0 1 2.170877,-2.17549 2.1708777,2.1754901 0 0 1 2.170878,2.17549 z" />
      <path
         id="ellipse54"
         style="fill:#1a1a1a;fill-rule:evenodd;stroke-width:5.17393"
         d="m 44.030738,136.45357 a 3.0084605,3.0148525 0 0 1 -3.00846,3.01485 3.0084605,3.0148525 0 0 1 -3.008461,-3.01485 3.0084605,3.0148525 0 0 1 3.008461,-3.01486 3.0084605,3.0148525 0 0 1 3.00846,3.01486 z" />
      <path
         id="ellipse26"
         style="fill:#b7c4c8;fill-rule:evenodd;stroke-width:5.17393"
         d="m 43.913806,136.31325 a 3.0084605,3.0148525 0 0 1 -3.00846,3.01485 3.0084605,3.0148525 0 0 1 -3.008461,-3.01485 3.0084605,3.0148525 0 0 1 3.008461,-3.01485 3.0084605,3.0148525 0 0 1 3.00846,3.01485 z" />
      <path
         id="ellipse27"
         style="fill-rule:evenodd;stroke-width:3.73346"
         d="m 43.076224,136.31325 a 2.1708777,2.1754901 0 0 1 -2.170878,2.17549 2.1708777,2.1754901 0 0 1 -2.170878,-2.17549 2.1708777,2.1754901 0 0 1 2.170878,-2.17549 2.1708777,2.1754901 0 0 1 2.170878,2.17549 z" />
      <path
         id="ellipse55"
         style="fill:#1a1a1a;fill-rule:evenodd;stroke-width:5.17393"
         d="m 58.506721,158.24939 a 3.0084605,3.0148525 0 0 1 -3.008461,3.01485 3.0084605,3.0148525 0 0 1 -3.00846,-3.01485 3.0084605,3.0148525 0 0 1 3.00846,-3.01485 3.0084605,3.0148525 0 0 1 3.008461,3.01485 z" />
      <path
         id="ellipse28"
         style="fill:#b7c4c8;fill-rule:evenodd;stroke-width:5.17393"
         d="m 58.413177,157.92198 a 3.0084605,3.0148525 0 0 1 -3.008461,3.01485 3.0084605,3.0148525 0 0 1 -3.00846,-3.01485 3.0084605,3.0148525 0 0 1 3.00846,-3.01485 3.0084605,3.0148525 0 0 1 3.008461,3.01485 z" />
      <path
         id="ellipse29"
         style="fill-rule:evenodd;stroke-width:3.73346"
         d="m 57.575594,157.92198 a 2.1708777,2.1754901 0 0 1 -2.170878,2.17549 2.1708777,2.1754901 0 0 1 -2.170877,-2.17549 2.1708777,2.1754901 0 0 1 2.170877,-2.17549 2.1708777,2.1754901 0 0 1 2.170878,2.17549 z" />
      <path
         id="ellipse56"
         style="fill:#1a1a1a;fill-rule:evenodd;stroke-width:5.30137"
         d="m 80.825075,172.4823 a 3.1242158,3.0479255 0 0 1 -3.124216,3.04793 3.1242158,3.0479255 0 0 1 -3.124216,-3.04793 3.1242158,3.0479255 0 0 1 3.124216,-3.04793 3.1242158,3.0479255 0 0 1 3.124216,3.04793 z" />
      <path
         id="ellipse30"
         style="fill:#b7c4c8;fill-rule:evenodd;stroke-width:5.17393"
         d="m 80.692779,172.16812 a 3.0084605,3.0148525 0 0 1 -3.00846,3.01485 3.0084605,3.0148525 0 0 1 -3.008461,-3.01485 3.0084605,3.0148525 0 0 1 3.008461,-3.01485 3.0084605,3.0148525 0 0 1 3.00846,3.01485 z" />
      <path
         id="ellipse31"
         style="fill-rule:evenodd;stroke-width:3.73346"
         d="m 79.855196,172.16812 a 2.1708777,2.1754901 0 0 1 -2.170877,2.17549 2.1708777,2.1754901 0 0 1 -2.170878,-2.17549 2.1708777,2.1754901 0 0 1 2.170878,-2.17549 2.1708777,2.1754901 0 0 1 2.170877,2.17549 z" />
      <path
         id="ellipse57"
         style="fill:#1a1a1a;fill-rule:evenodd;stroke-width:5.43496"
         d="m 106.26111,176.99919 a 3.1429305,3.1844015 0 0 1 -3.14293,3.1844 3.1429305,3.1844015 0 0 1 -3.142931,-3.1844 3.1429305,3.1844015 0 0 1 3.142931,-3.1844 3.1429305,3.1844015 0 0 1 3.14293,3.1844 z" />
      <path
         id="ellipse32"
         style="fill:#b7c4c8;fill-rule:evenodd;stroke-width:5.17393"
         d="m 106.12079,176.53731 a 3.0084605,3.0148525 0 0 1 -3.00846,3.01485 3.0084605,3.0148525 0 0 1 -3.00846,-3.01485 3.0084605,3.0148525 0 0 1 3.00846,-3.01485 3.0084605,3.0148525 0 0 1 3.00846,3.01485 z" />
      <path
         id="ellipse33"
         style="fill-rule:evenodd;stroke-width:3.73346"
         d="m 105.28321,176.53731 a 2.1708777,2.1754901 0 0 1 -2.17088,2.17549 2.1708777,2.1754901 0 0 1 -2.17088,-2.17549 2.1708777,2.1754901 0 0 1 2.17088,-2.17549 2.1708777,2.1754901 0 0 1 2.17088,2.17549 z" />
      <path
         id="ellipse58"
         style="fill:#1a1a1a;fill-rule:evenodd;stroke-width:5.17393"
         d="m 131.83202,171.37372 a 3.0084605,3.0148525 0 0 1 -3.00846,3.01485 3.0084605,3.0148525 0 0 1 -3.00846,-3.01485 3.0084605,3.0148525 0 0 1 3.00846,-3.01485 3.0084605,3.0148525 0 0 1 3.00846,3.01485 z" />
      <path
         id="ellipse49"
         style="fill:#1c2224;fill-rule:evenodd;stroke-width:5.17393"
         d="m 103.32297,44.194286 a 3.0084605,3.0148525 0 0 1 -3.00846,3.014853 3.0084605,3.0148525 0 0 1 -3.008464,-3.014853 3.0084605,3.0148525 0 0 1 3.008464,-3.014852 3.0084605,3.0148525 0 0 1 3.00846,3.014852 z" />
      <path
         id="path18"
         style="fill:#b7c4c8;fill-rule:evenodd;stroke-width:5.17393"
         d="m 103.25682,43.598972 a 3.0084605,3.0148525 0 0 1 -3.00846,3.014853 3.0084605,3.0148525 0 0 1 -3.008461,-3.014853 3.0084605,3.0148525 0 0 1 3.008461,-3.014852 3.0084605,3.0148525 0 0 1 3.00846,3.014852 z" />
      <path
         id="circle18"
         style="fill-rule:evenodd;stroke-width:3.73346"
         d="m 102.41924,43.598972 a 2.1708777,2.1754901 0 0 1 -2.17088,2.17549 2.1708777,2.1754901 0 0 1 -2.170878,-2.17549 2.1708777,2.1754901 0 0 1 2.170878,-2.17549 2.1708777,2.1754901 0 0 1 2.17088,2.17549 z" />
      <path
         id="ellipse34"
         style="fill:#b7c4c8;fill-rule:evenodd;stroke-width:5.17393"
         d="m 131.65839,171.01819 a 3.0084605,3.0148525 0 0 1 -3.00846,3.01485 3.0084605,3.0148525 0 0 1 -3.00846,-3.01485 3.0084605,3.0148525 0 0 1 3.00846,-3.01485 3.0084605,3.0148525 0 0 1 3.00846,3.01485 z" />
      <path
         id="ellipse35"
         style="fill-rule:evenodd;stroke-width:3.73346"
         d="m 130.82081,171.01819 a 2.1708777,2.1754901 0 0 1 -2.17088,2.17549 2.1708777,2.1754901 0 0 1 -2.17087,-2.17549 2.1708777,2.1754901 0 0 1 2.17087,-2.17549 2.1708777,2.1754901 0 0 1 2.17088,2.17549 z" />
      <path
         id="ellipse59"
         style="fill:#1a1a1a;fill-rule:evenodd;stroke-width:5.17393"
         d="m 153.22887,156.0211 a 3.0084605,3.0148525 0 0 1 -3.00846,3.01486 3.0084605,3.0148525 0 0 1 -3.00846,-3.01486 3.0084605,3.0148525 0 0 1 3.00846,-3.01485 3.0084605,3.0148525 0 0 1 3.00846,3.01485 z" />
      <path
         id="ellipse36"
         style="fill:#b7c4c8;fill-rule:evenodd;stroke-width:5.17393"
         d="m 153.08004,155.86401 a 3.0084605,3.0148525 0 0 1 -3.00846,3.01486 3.0084605,3.0148525 0 0 1 -3.00846,-3.01486 3.0084605,3.0148525 0 0 1 3.00846,-3.01485 3.0084605,3.0148525 0 0 1 3.00846,3.01485 z" />
      <path
         id="ellipse37"
         style="fill-rule:evenodd;stroke-width:3.73346"
         d="m 152.24246,155.86401 a 2.1708777,2.1754901 0 0 1 -2.17088,2.17549 2.1708777,2.1754901 0 0 1 -2.17088,-2.17549 2.1708777,2.1754901 0 0 1 2.17088,-2.17549 2.1708777,2.1754901 0 0 1 2.17088,2.17549 z" />
      <path
         id="ellipse60"
         style="fill:#1a1a1a;fill-rule:evenodd;stroke-width:5.17393"
         d="m 167.2754,133.90448 a 3.0084605,3.0148525 0 0 1 -3.00846,3.01485 3.0084605,3.0148525 0 0 1 -3.00846,-3.01485 3.0084605,3.0148525 0 0 1 3.00846,-3.01485 3.0084605,3.0148525 0 0 1 3.00846,3.01485 z" />
      <path
         id="ellipse38"
         style="fill:#b7c4c8;fill-rule:evenodd;stroke-width:5.17393"
         d="m 167.20524,133.60046 a 3.0084605,3.0148525 0 0 1 -3.00846,3.01486 3.0084605,3.0148525 0 0 1 -3.00846,-3.01486 3.0084605,3.0148525 0 0 1 3.00846,-3.01485 3.0084605,3.0148525 0 0 1 3.00846,3.01485 z" />
      <path
         id="ellipse39"
         style="fill-rule:evenodd;stroke-width:3.73346"
         d="m 166.36766,133.60046 a 2.1708777,2.1754901 0 0 1 -2.17088,2.17549 2.1708777,2.1754901 0 0 1 -2.17088,-2.17549 2.1708777,2.1754901 0 0 1 2.17088,-2.17549 2.1708777,2.1754901 0 0 1 2.17088,2.17549 z" />
      <path
         id="ellipse61"
         style="fill:#1a1a1a;fill-rule:evenodd;stroke-width:5.17393"
         d="m 171.97082,108.10728 a 3.0084605,3.0148525 0 0 1 -3.00846,3.01485 3.0084605,3.0148525 0 0 1 -3.00846,-3.01485 3.0084605,3.0148525 0 0 1 3.00846,-3.01486 3.0084605,3.0148525 0 0 1 3.00846,3.01486 z" />
      <path
         id="ellipse40"
         style="fill:#b7c4c8;fill-rule:evenodd;stroke-width:5.17393"
         d="m 171.78892,107.87577 a 3.0084605,3.0148525 0 0 1 -3.00846,3.01485 3.0084605,3.0148525 0 0 1 -3.00846,-3.01485 3.0084605,3.0148525 0 0 1 3.00846,-3.01485 3.0084605,3.0148525 0 0 1 3.00846,3.01485 z" />
      <path
         id="ellipse41"
         style="fill-rule:evenodd;stroke-width:3.73346"
         d="m 170.95133,107.87577 a 2.1708777,2.1754901 0 0 1 -2.17087,2.17549 2.1708777,2.1754901 0 0 1 -2.17088,-2.17549 2.1708777,2.1754901 0 0 1 2.17088,-2.17549 2.1708777,2.1754901 0 0 1 2.17087,2.17549 z" />
      <path
         id="ellipse62"
         style="fill:#1a1a1a;fill-rule:evenodd;stroke-width:5.17393"
         d="m 166.00571,82.641006 a 3.0084605,3.0148525 0 0 1 -3.00846,3.014853 3.0084605,3.0148525 0 0 1 -3.00846,-3.014853 3.0084605,3.0148525 0 0 1 3.00846,-3.014852 3.0084605,3.0148525 0 0 1 3.00846,3.014852 z" />
      <path
         id="ellipse42"
         style="fill:#b7c4c8;fill-rule:evenodd;stroke-width:5.17393"
         d="m 165.98917,82.525253 a 3.0084605,3.0148525 0 0 1 -3.00846,3.014853 3.0084605,3.0148525 0 0 1 -3.00846,-3.014853 3.0084605,3.0148525 0 0 1 3.00846,-3.014852 3.0084605,3.0148525 0 0 1 3.00846,3.014852 z" />
      <path
         id="ellipse43"
         style="fill-rule:evenodd;stroke-width:3.73346"
         d="m 165.15159,82.525253 a 2.1708777,2.1754901 0 0 1 -2.17088,2.17549 2.1708777,2.1754901 0 0 1 -2.17087,-2.17549 2.1708777,2.1754901 0 0 1 2.17087,-2.17549 2.1708777,2.1754901 0 0 1 2.17088,2.17549 z" />
      <path
         id="ellipse63"
         style="fill:#1a1a1a;fill-rule:evenodd;stroke-width:5.17393"
         d="m 151.55028,61.687561 a 3.0084605,3.0148525 0 0 1 -3.00846,3.014853 3.0084605,3.0148525 0 0 1 -3.00846,-3.014853 3.0084605,3.0148525 0 0 1 3.00846,-3.014852 3.0084605,3.0148525 0 0 1 3.00846,3.014852 z" />
      <path
         id="ellipse44"
         style="fill:#b7c4c8;fill-rule:evenodd;stroke-width:5.17393"
         d="m 151.58335,61.290688 a 3.0084605,3.0148525 0 0 1 -3.00846,3.014852 3.0084605,3.0148525 0 0 1 -3.00846,-3.014852 3.0084605,3.0148525 0 0 1 3.00846,-3.014853 3.0084605,3.0148525 0 0 1 3.00846,3.014853 z" />
      <path
         id="ellipse45"
         style="fill-rule:evenodd;stroke-width:3.73346"
         d="m 150.74577,61.290688 a 2.1708777,2.1754901 0 0 1 -2.17088,2.17549 2.1708777,2.1754901 0 0 1 -2.17088,-2.17549 2.1708777,2.1754901 0 0 1 2.17088,-2.175491 2.1708777,2.1754901 0 0 1 2.17088,2.175491 z" />
      <path
         id="ellipse50"
         style="fill:#1a1a1a;fill-rule:evenodd;stroke-width:5.17393"
         d="m 128.89553,47.65591 a 3.0084605,3.0148525 0 0 1 -3.00846,3.014853 3.0084605,3.0148525 0 0 1 -3.00846,-3.014853 3.0084605,3.0148525 0 0 1 3.00846,-3.014852 3.0084605,3.0148525 0 0 1 3.00846,3.014852 z" />
      <path
         id="ellipse46"
         style="fill:#b7c4c8;fill-rule:evenodd;stroke-width:5.17393"
         d="m 129.22626,47.259037 a 3.0084605,3.0148525 0 0 1 -3.00846,3.014853 3.0084605,3.0148525 0 0 1 -3.00846,-3.014853 3.0084605,3.0148525 0 0 1 3.00846,-3.014853 3.0084605,3.0148525 0 0 1 3.00846,3.014853 z" />
      <path
         id="ellipse47"
         style="fill-rule:evenodd;stroke-width:3.73346"
         d="m 128.38867,47.259037 a 2.1708777,2.1754901 0 0 1 -2.17087,2.17549 2.1708777,2.1754901 0 0 1 -2.17088,-2.17549 2.1708777,2.1754901 0 0 1 2.17088,-2.17549 2.1708777,2.1754901 0 0 1 2.17087,2.17549 z" />
    </g>
  </g>
</svg>
