<?xml version="1.0" encoding="UTF-8" standalone="no"?>
<!-- Created with Inkscape (http://www.inkscape.org/) -->

<svg
   width="225.46545mm"
   height="267.85883mm"
   viewBox="0 0 225.46545 267.85883"
   version="1.1"
   id="svg1"
   xmlns:inkscape="http://www.inkscape.org/namespaces/inkscape"
   xmlns:sodipodi="http://sodipodi.sourceforge.net/DTD/sodipodi-0.dtd"
   xmlns="http://www.w3.org/2000/svg"
   xmlns:svg="http://www.w3.org/2000/svg">
  <sodipodi:namedview
     id="namedview1"
     pagecolor="#ffffff"
     bordercolor="#000000"
     borderopacity="0.25"
     inkscape:showpageshadow="2"
     inkscape:pageopacity="0.0"
     inkscape:pagecheckerboard="0"
     inkscape:deskcolor="#d1d1d1"
     inkscape:document-units="mm" />
  <defs
     id="defs1" />
  <g
     inkscape:label="Capa 1"
     inkscape:groupmode="layer"
     id="layer1"
     transform="translate(7.6729165,-14.552084)">
    <g
       id="g69"
       inkscape:label="texto y puntos"
       transform="translate(654.15294,0.9126646)">
      <g
         id="text71"
         transform="rotate(-0.51984131,-549.27945,4.8807606)">
        <path
           style="color:#000000;-inkscape-font-specification:'Bebas Neue';fill:#ffffff;fill-rule:evenodd;stroke-linecap:round;stroke-linejoin:bevel;-inkscape-stroke:none;paint-order:fill markers stroke"
           d="m -621.38345,38.866213 11.45503,-6.511209 q 5.86553,-3.334053 10.12574,-2.103547 4.22098,1.1615 7.43736,6.820009 l 1.09828,1.932174 q 2.1181,3.726335 2.20961,6.778581 0.16052,3.013021 -1.73535,5.460184 l 0.0784,0.138012 q 6.75679,-1.284206 11.38524,6.858526 l 2.35345,4.140372 q 3.17715,5.589503 1.89653,10.243409 -1.25085,4.545675 -6.90936,7.762055 l -11.93807,6.785778 z m 21.73683,13.665473 q 2.27721,-1.294397 2.7145,-3.095089 0.50629,-1.839916 -1.06267,-4.600164 l -1.52975,-2.691242 q -1.49051,-2.622236 -3.12341,-3.246203 -1.56389,-0.663192 -3.56507,0.474309 l -3.65733,2.07888 7.25647,12.766148 z m 13.73573,20.952472 q 2.00118,-1.1375 2.37891,-2.721731 0.3385,-1.653238 -1.15202,-4.275473 l -2.39267,-4.209379 q -1.88276,-3.312298 -3.7619,-3.887599 -1.84936,-0.683532 -4.47159,0.806986 l -3.38131,1.921984 8.43319,14.836334 z m 9.46125,-54.452039 8.54564,-1.790742 11.39564,54.381347 -8.54564,1.790742 z m 32.53563,-4.348298 8.67948,0.949431 -2.5462,23.276777 13.5928,-22.06841 8.67948,0.949431 -12.55468,19.147726 6.67066,36.102566 -9.074,-0.992586 -4.64517,-25.420852 -4.23997,6.642713 -1.92475,17.595666 -8.67948,-0.949431 z m 53.79367,12.170338 20.74137,11.697469 -3.89915,6.91379 -13.1362,-7.408398 -7.21344,12.790511 10.43982,5.887726 -3.89916,6.91379 -10.43982,-5.887727 -8.38319,14.864648 13.1362,7.408397 -3.89915,6.91379 -20.74137,-11.69747 z"
           id="path73" />
        <path
           style="color:#000000;-inkscape-font-specification:'Bebas Neue';fill:#000000;fill-rule:evenodd;stroke-linecap:round;stroke-linejoin:bevel;-inkscape-stroke:none;paint-order:fill markers stroke"
           d="m -543.80469,13.689453 -1.10351,0.884766 -6.04102,55.234375 0.88477,1.101562 8.67968,0.951172 1.10157,-0.886719 1.90039,-17.363281 2.74414,-4.300781 4.18945,22.917969 0.87305,0.814453 9.07422,0.992187 1.09375,-1.175781 -6.59961,-35.707031 12.33594,-18.8125 -0.72852,-1.542969 -8.67969,-0.949219 -0.95898,0.46875 -11.26563,18.28711 2.06446,-18.861328 -0.88477,-1.103516 z m 0.77539,2.097656 6.69141,0.732422 -2.4375,22.28125 1.8457,0.632813 13.26172,-21.529297 6.42969,0.703125 -11.66016,17.783203 -0.14843,0.730469 6.42773,34.779297 -6.99805,-0.765625 -4.50976,-24.6875 -1.82813,-0.357422 -4.24023,6.642578 -0.15039,0.429687 -1.81446,16.601563 -6.69336,-0.732422 z m -25.08007,0.47461 -8.54493,1.791015 -0.77343,1.183594 11.39453,54.382813 1.18359,0.773437 8.54688,-1.791016 0.77343,-1.183593 -11.39648,-54.38086 z m -0.56836,2.164062 10.98632,52.423828 -6.58984,1.38086 -10.98437,-52.423828 z m 79.04882,7.556641 -1.36328,0.380859 -27.29297,48.396485 0.37891,1.361328 20.74219,11.697265 1.36133,-0.378906 3.90039,-6.914062 -0.38086,-1.361329 -12.26563,-6.917968 7.40235,-13.123047 9.56836,5.396484 1.36132,-0.378906 3.90039,-6.914063 -0.38086,-1.363281 -9.56835,-5.396484 6.23242,-11.046875 12.26367,6.916015 1.36328,-0.378906 3.89844,-6.914062 -0.38086,-1.363282 z m -0.11132,2.232422 18.99804,10.716797 -2.91406,5.171875 -12.26758,-6.917969 -1.36133,0.380859 -7.21289,12.789063 0.37891,1.363281 9.57031,5.396484 -2.91797,5.171875 -9.56836,-5.396484 -1.36328,0.378906 -8.38281,14.865235 0.38086,1.361328 12.26367,6.917968 -2.91601,5.169922 -19,-10.71289 z m -112.26368,0.707031 c -2.56489,-0.05133 -5.38292,0.839292 -8.41796,2.564453 l -11.45508,6.509766 -0.375,1.365234 27.45508,48.302734 1.36523,0.375 11.9375,-6.785156 c 3.92076,-2.22862 6.45867,-5.021052 7.37891,-8.365234 0.93704,-3.405302 0.2153,-7.123736 -1.99024,-11.003906 l -2.35351,-4.140625 c -1.60005,-2.814931 -3.42103,-4.886642 -5.51563,-6.148438 -1.60503,-0.966875 -3.39581,-1.267437 -5.24219,-1.220703 0.75726,-1.44062 1.24208,-2.975643 1.15625,-4.632813 -0.0695,-2.250926 -0.87297,-4.655217 -2.33789,-7.232421 l -1.09765,-1.931641 c -2.21982,-3.905279 -4.88259,-6.416784 -8.0293,-7.287109 -10e-4,-3.55e-4 -0.003,3.54e-4 -0.004,0 -0.79611,-0.229587 -1.62096,-0.352058 -2.47461,-0.369141 z m -0.0586,2 c 0.69888,0.01268 1.35961,0.111123 1.98242,0.291016 l 0.0117,0.002 c 2.47612,0.68136 4.76808,2.717053 6.83399,6.351562 l 1.09765,1.931641 c 1.35716,2.387624 2.02563,4.498444 2.08008,6.314453 v 0.02344 c 0.0951,1.785465 -0.39349,3.331358 -1.52734,4.794922 l -0.0781,1.105469 0.0781,0.138672 1.05664,0.488281 c 2.04124,-0.387962 3.821,-0.07906 5.52148,0.945313 1.70048,1.024377 3.32106,2.810276 4.80664,5.423828 l 2.35352,4.140625 c 2.03065,3.572493 2.57318,6.684475 1.80273,9.484375 -0.74757,2.716712 -2.81554,5.098321 -6.43945,7.158203 l -11.06836,6.291016 -26.46875,-46.564454 10.58594,-6.017578 c 2.83048,-1.608888 5.27445,-2.340773 7.37109,-2.302734 z m -2.37109,6.78125 c -0.7528,0.09731 -1.52144,0.373334 -2.27344,0.800781 l -3.6582,2.078125 -0.375,1.365235 7.25781,12.765625 1.36328,0.375 2.9668,-1.6875 c 1.66186,-0.944627 2.80716,-2.187976 3.18359,-3.714844 0.43456,-1.600928 -0.0437,-3.386453 -1.15625,-5.34375 l -1.5293,-2.691406 c -1.04968,-1.84669 -2.1978,-3.123243 -3.61914,-3.673829 -0.68224,-0.286039 -1.41276,-0.370048 -2.16015,-0.273437 z m 0.22461,1.966797 c 0.43556,-0.06079 0.81379,-6.32e-4 1.16992,0.15039 l 0.0332,0.01367 c 0.74705,0.285465 1.67834,1.163298 2.61133,2.804688 l 1.53125,2.691406 c 0.97597,1.717003 1.20028,2.993289 0.9668,3.841797 l -0.008,0.0293 c -0.21055,0.867031 -0.86747,1.682863 -2.23632,2.460937 l -2.09766,1.19336 -6.26953,-11.027344 2.78906,-1.585938 c 0.58212,-0.330886 1.07421,-0.511472 1.50977,-0.572265 z m 11.17187,17.595703 c -0.89163,0.158259 -1.82105,0.524481 -2.76758,1.0625 l -3.38086,1.921875 -0.375,1.363281 8.4336,14.835938 1.36328,0.375 4.34765,-2.470703 c 1.48401,-0.843533 2.52573,-1.968197 2.85743,-3.359375 l 0.006,-0.03125 c 0.30436,-1.486514 -0.20736,-3.115784 -1.26172,-4.970704 l -2.39258,-4.208984 c -1.30679,-2.299 -2.64935,-3.812883 -4.31445,-4.333984 -0.79145,-0.286481 -1.63426,-0.340032 -2.51563,-0.183594 z m 0.3125,1.96875 c 0.5989,-0.110736 1.10554,-0.06648 1.53906,0.09375 l 0.0547,0.01758 c 0.82848,0.25364 1.98871,1.320219 3.18555,3.425781 l 2.39258,4.208985 c 0.92855,1.633588 1.18151,2.849206 1.03906,3.568359 -0.17669,0.714589 -0.71629,1.398898 -1.89063,2.066406 l -3.47851,1.976563 -7.44531,-13.097656 2.51171,-1.427735 c 0.80163,-0.455658 1.4929,-0.721295 2.0918,-0.832031 z"
           id="path74" />
      </g>
      <path
         d="m -605.94278,274.40617 q -6.18527,-1.43703 -8.54689,-5.65271 -2.34365,-4.293 -0.81681,-10.86485 l 0.71851,-3.09263 8.04084,1.86814 -0.86222,3.71115 q -1.22147,5.25748 3.18553,6.28136 2.16484,0.50296 3.53467,-0.48262 1.4651,-1.04492 2.12973,-3.90561 0.79036,-3.40189 -0.16318,-6.31257 -0.93558,-2.98799 -4.26638,-7.59182 -4.1797,-5.86042 -5.40501,-10.05657 -1.20735,-4.27347 -0.11162,-8.98973 1.49091,-6.41721 5.5465,-9.14198 4.07355,-2.80209 10.25882,-1.36507 6.10794,1.41907 8.37428,5.69411 2.36162,4.21568 0.83478,10.78752 l -0.52092,2.24216 -8.04084,-1.86814 0.64666,-2.78336 q 0.64666,-2.78337 -0.14835,-4.2719 -0.77705,-1.56585 -2.86458,-2.05085 -4.25237,-0.98795 -5.45588,4.19221 -0.68258,2.938 0.27096,5.84867 1.03086,2.92864 4.36166,7.53247 4.25702,5.87838 5.38705,10.13389 1.13003,4.25551 -0.0555,9.35835 -1.5448,6.64915 -5.69567,9.43328 -4.07355,2.80208 -10.33612,1.3471 z m 33.43452,-50.77274 8.71974,0.44809 -1.16097,22.59206 9.35391,0.48069 1.16097,-22.59207 8.71974,0.4481 -2.85151,55.48928 -8.71975,-0.44809 1.28319,-24.97018 -9.35391,-0.48069 -1.28318,24.97018 -8.71975,-0.44809 z m 55.79544,55.18719 q -6.37508,0.83378 -10.23289,-2.34402 -3.85781,-3.17779 -4.72247,-9.78899 l -3.78804,-28.96333 q -0.86466,-6.6112 2.04614,-10.67424 2.9108,-4.06304 9.28588,-4.89682 6.37508,-0.83378 10.23289,2.34401 3.85781,3.1778 4.72247,9.78899 l 3.78804,28.96334 q 0.86466,6.6112 -2.04614,10.67424 -2.9108,4.06304 -9.28588,4.89682 z m -1.02936,-7.87048 q 4.48617,-0.58673 3.77591,-6.01735 l -3.93214,-30.06521 q -0.71026,-5.43062 -5.19643,-4.84389 -4.48617,0.58673 -3.77591,6.01736 l 3.93214,30.0652 q 0.71026,5.43063 5.19643,4.84389 z m 15.48265,-51.7455 12.26129,-3.87405 q 6.20633,-1.96094 10.36171,0.38882 4.15538,2.34976 6.18805,8.78315 l 1.65006,5.2224 q 2.03268,6.4334 -0.0183,10.74409 -2.05095,4.3107 -8.25728,6.27163 l -3.93573,1.24352 6.81546,21.57079 -8.32557,2.63053 z m 19.79416,19.96735 q 2.04355,-0.64568 2.66877,-2.09186 0.70091,-1.4701 -0.15999,-4.19483 l -1.98485,-6.28202 q -0.8609,-2.72473 -2.27922,-3.52524 -1.34264,-0.82443 -3.38619,-0.17875 l -3.93572,1.24352 5.14148,16.2727 z"
         id="text72"
         style="font-size:79.375px;line-height:0;font-family:'Bebas Neue';-inkscape-font-specification:'Bebas Neue';fill:#ffffff;fill-rule:evenodd;stroke:#000000;stroke-width:2;stroke-linecap:round;stroke-linejoin:bevel;paint-order:fill markers stroke"
         aria-label="s h o p" />
      <g
         id="g68"
         inkscape:label="puntos">
        <g
           id="g51"
           transform="matrix(0.69313612,-1.0594625,1.0594625,0.69313612,-320.56943,-844.134)">
          <g
             id="g44"
             transform="rotate(-18.769683,-868.81172,215.40573)">
            <circle
               style="fill:#000000;fill-opacity:1;fill-rule:evenodd;stroke-width:0.264583"
               id="path34"
               cx="-764.03394"
               cy="246.26637"
               r="3.5493445" />
            <circle
               style="fill:#000000;fill-opacity:1;fill-rule:evenodd;stroke-width:0.264583"
               id="path35"
               cx="-764.03394"
               cy="236.76329"
               r="2.2898998" />
            <circle
               style="fill:#000000;fill-opacity:1;fill-rule:evenodd;stroke-width:0.264583"
               id="path36"
               cx="-764.03394"
               cy="227.37473"
               r="3.4348497" />
            <circle
               style="fill:#000000;fill-opacity:1;fill-rule:evenodd;stroke-width:0.264583"
               id="path37"
               cx="-764.03394"
               cy="217.87163"
               r="2.6333847" />
          </g>
          <g
             id="g43"
             transform="rotate(10.78903,-532.49312,189.17078)">
            <circle
               style="fill:#000000;fill-opacity:1;fill-rule:evenodd;stroke-width:0.264583"
               id="path38"
               cx="-742.50885"
               cy="248.55629"
               r="4.2363148" />
            <circle
               style="fill:#000000;fill-opacity:1;fill-rule:evenodd;stroke-width:0.264583"
               id="path39"
               cx="-742.50885"
               cy="238.02275"
               r="2.6333847" />
            <circle
               style="fill:#000000;fill-opacity:1;fill-rule:evenodd;stroke-width:0.264583"
               id="path40"
               cx="-742.50885"
               cy="229.66461"
               r="2.2898998" />
          </g>
        </g>
        <g
           id="g52"
           transform="matrix(-1.1838137,-1.4108142,1.4108142,-1.1838137,-1775.2263,-560.36152)"
           inkscape:label="g52">
          <g
             id="g42"
             transform="translate(-0.18876824,-35.909139)">
            <circle
               style="fill:#000000;fill-opacity:1;fill-rule:evenodd;stroke-width:0.264583"
               id="path41"
               cx="-726.82306"
               cy="249.24324"
               r="1.7174249" />
            <circle
               style="fill:#000000;fill-opacity:1;fill-rule:evenodd;stroke-width:2.365;stroke-dasharray:none"
               id="path42"
               cx="-726.82306"
               cy="243.86198"
               r="1.8319198" />
          </g>
          <g
             id="g49"
             transform="translate(0,-23.509025)">
            <path
               style="opacity:1;fill:#000000;fill-opacity:1;fill-rule:evenodd;stroke:#000000;stroke-width:2.365;stroke-linecap:round;stroke-linejoin:bevel;stroke-dasharray:none;stroke-opacity:1;paint-order:fill markers stroke"
               d="m -717.85396,223.93986 v 13.22417"
               id="path44" />
            <circle
               style="fill:#000000;fill-opacity:1;fill-rule:evenodd;stroke-width:0.264583"
               id="path45"
               cx="-717.85394"
               cy="242.00143"
               r="0.94458365" />
            <circle
               style="fill:#000000;fill-opacity:1;fill-rule:evenodd;stroke-width:0.264583"
               id="path46"
               cx="-717.85394"
               cy="245.20731"
               r="1.0590787" />
          </g>
          <g
             id="g50"
             transform="rotate(15.2157,-610.15894,233.46536)">
            <circle
               style="fill:#000000;fill-opacity:1;fill-rule:evenodd;stroke-width:0.264583"
               id="path47"
               cx="-710.62201"
               cy="247.78343"
               r="1.6888011" />
            <circle
               style="fill:#000000;fill-opacity:1;fill-rule:evenodd;stroke-width:0.264583"
               id="circle47"
               cx="-710.62201"
               cy="234.15852"
               r="1.6888011" />
            <circle
               style="fill:#000000;fill-opacity:1;fill-rule:evenodd;stroke-width:0.264583"
               id="circle48"
               cx="-710.62201"
               cy="238.56659"
               r="1.6888011" />
            <circle
               style="fill:#000000;fill-opacity:1;fill-rule:evenodd;stroke-width:0.264583"
               id="circle49"
               cx="-710.62201"
               cy="243.14638"
               r="1.6888011" />
          </g>
        </g>
        <g
           id="g59"
           transform="matrix(0.69313612,-1.0594625,1.0594625,0.69313612,-320.56943,-844.134)">
          <g
             id="g55"
             transform="rotate(-0.53465221,12942.22,-539.69591)">
            <circle
               style="fill:#000000;fill-opacity:1;fill-rule:evenodd;stroke-width:0.264583"
               id="circle52"
               cx="-764.03394"
               cy="246.26637"
               r="3.5493445" />
            <circle
               style="fill:#000000;fill-opacity:1;fill-rule:evenodd;stroke-width:0.264583"
               id="circle53"
               cx="-764.03394"
               cy="236.76329"
               r="2.2898998" />
            <circle
               style="fill:#000000;fill-opacity:1;fill-rule:evenodd;stroke-width:0.264583"
               id="circle54"
               cx="-764.03394"
               cy="227.37473"
               r="3.4348497" />
            <circle
               style="fill:#000000;fill-opacity:1;fill-rule:evenodd;stroke-width:0.264583"
               id="circle55"
               cx="-764.03394"
               cy="217.87163"
               r="2.6333847" />
          </g>
          <g
             id="g58"
             transform="matrix(0.84705748,-0.53159226,0.62755918,0.98870086,-261.45873,-277.96992)">
            <circle
               style="fill:#000000;fill-opacity:1;fill-rule:evenodd;stroke-width:0.264583"
               id="circle56"
               cx="-742.50885"
               cy="248.55629"
               r="4.2363148" />
            <circle
               style="fill:#000000;fill-opacity:1;fill-rule:evenodd;stroke-width:0.264583"
               id="circle57"
               cx="-742.50885"
               cy="238.02275"
               r="2.6333847" />
            <circle
               style="fill:#000000;fill-opacity:1;fill-rule:evenodd;stroke-width:0.264583"
               id="circle58"
               cx="-742.50885"
               cy="229.66461"
               r="2.2898998" />
          </g>
        </g>
        <g
           id="g67"
           transform="matrix(-1.0288963,-1.5274764,1.5274764,-1.0288963,-1517.2596,-788.05815)"
           inkscape:label="g52">
          <g
             id="g60"
             transform="rotate(33.802851,-653.38225,226.61189)">
            <circle
               style="fill:#000000;fill-opacity:1;fill-rule:evenodd;stroke-width:0.264583"
               id="circle59"
               cx="-726.82306"
               cy="249.24324"
               r="1.7174249" />
            <circle
               style="fill:#000000;fill-opacity:1;fill-rule:evenodd;stroke-width:2.365;stroke-dasharray:none"
               id="circle60"
               cx="-726.82306"
               cy="243.86198"
               r="1.8319198" />
          </g>
          <g
             id="g62"
             transform="rotate(2.4250366,-158.61768,186.8124)">
            <path
               style="opacity:1;fill:#000000;fill-opacity:1;fill-rule:evenodd;stroke:#000000;stroke-width:2.365;stroke-linecap:round;stroke-linejoin:bevel;stroke-dasharray:none;stroke-opacity:1;paint-order:fill markers stroke"
               d="m -717.85396,223.93986 v 13.22417"
               id="path60" />
            <circle
               style="fill:#000000;fill-opacity:1;fill-rule:evenodd;stroke-width:0.264583"
               id="circle61"
               cx="-717.85394"
               cy="242.00143"
               r="0.94458365" />
            <circle
               style="fill:#000000;fill-opacity:1;fill-rule:evenodd;stroke-width:0.264583"
               id="circle62"
               cx="-717.85394"
               cy="245.20731"
               r="1.0590787" />
          </g>
          <g
             id="g66"
             transform="rotate(-19.844868,-807.57769,226.95756)">
            <circle
               style="fill:#000000;fill-opacity:1;fill-rule:evenodd;stroke-width:0.264583"
               id="circle63"
               cx="-710.62201"
               cy="247.78343"
               r="1.6888011" />
            <circle
               style="fill:#000000;fill-opacity:1;fill-rule:evenodd;stroke-width:0.264583"
               id="circle64"
               cx="-710.62201"
               cy="234.15852"
               r="1.6888011" />
            <circle
               style="fill:#000000;fill-opacity:1;fill-rule:evenodd;stroke-width:0.264583"
               id="circle65"
               cx="-710.62201"
               cy="238.56659"
               r="1.6888011" />
            <circle
               style="fill:#000000;fill-opacity:1;fill-rule:evenodd;stroke-width:0.264583"
               id="circle66"
               cx="-710.62201"
               cy="243.14638"
               r="1.6888011" />
          </g>
        </g>
      </g>
    </g>
  </g>
</svg>
